<?xml version="1.0" encoding="UTF-8"?>
<!DOCTYPE svg PUBLIC "-//W3C//DTD SVG 1.1//EN" "http://www.w3.org/Graphics/SVG/1.1/DTD/svg11.dtd">
<!-- Creator: CorelDRAW X7 -->
<svg xmlns="http://www.w3.org/2000/svg" xml:space="preserve" width="215.9mm" height="279.4mm" version="1.1" style="shape-rendering:geometricPrecision; text-rendering:geometricPrecision; image-rendering:optimizeQuality; fill-rule:evenodd; clip-rule:evenodd"
viewBox="0 0 21590 27940"
 xmlns:xlink="http://www.w3.org/1999/xlink">
 <defs>
  <style type="text/css">
   <![CDATA[
    .str2 {stroke:#FEFEFE;stroke-width:25}
    .str1 {stroke:#FEFEFE;stroke-width:20}
    .str0 {stroke:#373435;stroke-width:20}
    .fil1 {fill:#FEFEFE}
    .fil0 {fill:#53356E}
   ]]>
  </style>
 </defs>
 <g id="Capa_x0020_1">
  <metadata id="CorelCorpID_0Corel-Layer"/>
  <rect class="fil0 str0" x="7547" y="4321" width="3199" height="3181" rx="287" ry="260"/>
  <path class="fil1 str1" d="M7973 5371l75 86c1,0 2,1 2,2l26 24c27,30 12,7 38,40 7,10 13,9 27,20l37 28c23,14 8,8 23,22 13,13 6,1 28,17l141 84c32,15 21,26 27,61 4,30 3,59 6,90 24,273 395,920 309,1125 -1,1 -1,2 -2,2l-6 10c-2,7 -2,11 -4,19 -2,17 -4,19 -8,35 -13,55 0,89 22,138 9,17 22,24 49,38 47,25 38,14 73,51 58,61 54,71 145,107l27 14c77,24 123,32 209,9l45 -12c1,0 4,0 5,-1l19 -12c6,-3 9,-3 16,-5 6,-3 16,-8 27,-14 46,-23 47,-33 66,-57 23,-29 8,4 30,-28 13,-19 66,-48 86,-59 9,-6 19,-9 26,-16 9,-9 7,-14 14,-27 11,-19 22,-36 24,-64 5,-97 -43,-163 -39,-242 -3,-32 204,-568 236,-656 48,-211 71,-256 92,-497 8,-5 23,-9 34,-15l118 -72 192 -156c13,-12 36,-38 47,-51 22,-26 42,-41 41,-65 -1,-6 1,-2 -4,-9l-18 -19c-12,-12 -16,-17 -28,-27 -10,-8 -15,-18 -24,-29 -10,-10 -15,-19 -30,-23 -14,7 -56,64 -79,85 -102,107 -216,175 -340,242 -19,11 -48,25 -66,37 -6,71 -1,302 -24,346 -8,80 -66,217 -96,277 -91,178 -96,217 -156,397 -16,48 -31,89 -44,140 -17,70 -19,90 -7,164l32 147c-61,25 -89,58 -129,103 -32,36 -108,67 -153,63 -86,-7 -137,-36 -184,-99 -26,-35 -72,-46 -97,-70 5,-29 16,-63 22,-94 69,-357 -297,-805 -315,-1376 -35,-14 -66,-36 -101,-52 -35,-15 -159,-91 -186,-114 -46,-40 -77,-61 -120,-108 -12,-13 -24,-22 -36,-38 -20,-29 -49,-56 -66,-84 -11,-17 -17,-34 -29,-50 -10,-15 -18,-27 -28,-47 -13,-25 -37,-80 -42,-110 15,9 22,21 35,33 30,29 40,32 54,45 29,26 55,49 89,72l116 74c58,28 105,63 169,85 60,21 119,52 184,70 35,10 69,17 105,26 53,13 51,19 106,2 18,-5 36,-7 54,-12 86,-21 324,-17 408,-13l131 12c1,0 2,0 3,1 0,0 2,0 2,1 9,3 18,4 28,6 17,4 30,9 47,13 62,11 261,-62 318,-85 58,-23 237,-102 271,-139 -7,-15 11,2 -7,-29 15,1 17,-2 25,-8l-16 -7c0,8 4,6 -5,9 -6,-12 -4,-38 -4,-58 0,-57 4,-59 -22,-58 -2,0 -16,0 -16,0 -26,4 -5,1 5,15 -8,-2 -8,-3 -15,-3 -19,2 -14,13 -17,20l-27 -5c-47,18 -52,38 -101,55 -18,6 -37,19 -55,25 -34,13 -61,26 -94,38 -33,13 -61,23 -97,35 -11,4 -86,31 -92,29 -8,-3 -21,2 -73,-11 -156,-37 -471,-31 -621,-7 -49,7 -36,13 -90,18 -1,0 -2,0 -3,0 -26,1 3,-6 -28,-12 -42,-7 -108,-26 -147,-42 -29,-13 -256,-128 -262,-118 -1,1 -1,2 -2,3 -1,1 -1,2 -2,3 -1,3 -1,3 -4,8 -10,15 -74,82 -98,94 -18,-8 -10,-6 -23,-20 -10,-10 -12,-9 -15,-20 -13,-4 -15,-9 -16,-25 -1,-52 -21,-22 15,-59 17,-17 28,-40 55,-48 -22,-18 -48,-33 -68,-52l-175 -172c-14,-18 -1,-10 -26,-37l-111 -181c-9,-19 -22,-69 -37,-83l-9 16c0,1 -4,14 -4,15 -49,170 -48,287 -14,458 13,64 26,51 19,49 2,29 21,81 31,107 20,51 10,20 22,45l26 54c3,5 4,6 6,10 36,53 11,19 23,44l42 53c6,9 -1,1 7,10l25 26z"/>
  <path class="fil1 str2" d="M9969 5063c20,4 37,13 58,12 7,-1 -7,-26 1,-24 -10,-14 -31,-11 -5,-15 0,0 14,0 16,0 26,-1 22,1 22,58 0,20 -2,46 4,58 9,-3 5,-1 5,-9l16 7c-8,6 -10,9 -25,8 18,31 0,14 7,29 87,-54 82,-53 157,-116 22,-18 32,-18 61,-50 12,-13 15,-20 29,-29 -23,101 -114,209 -123,245 15,4 20,13 30,23 9,11 14,21 24,29 12,10 16,15 28,27l18 19c5,7 -15,23 -2,26 37,-8 309,-537 171,-882 -9,11 -28,73 -38,95 -19,43 -73,130 -102,168 -16,22 -7,1 -29,38l-205 201 -118 82z"/>
  <path class="fil1" d="M8225 5084c0,1 -27,114 0,0zm-78 59c35,9 28,40 66,44 37,-1 25,-20 55,-53 30,-34 28,-32 51,-55 5,-6 -29,-43 -60,-61 -30,-18 -57,-18 -70,-3 -5,5 -14,11 -19,16 -40,39 -40,34 -38,61 1,31 7,25 15,51z"/>
 </g>
</svg>
