<?xml version="1.0" encoding="utf-8"?>
<!-- Generator: Adobe Illustrator 19.2.1, SVG Export Plug-In . SVG Version: 6.00 Build 0)  -->
<svg version="1.1" id="Capa_1" xmlns="http://www.w3.org/2000/svg" xmlns:xlink="http://www.w3.org/1999/xlink" x="0px" y="0px"
	 viewBox="0 0 100 100" style="enable-background:new 0 0 100 100;" xml:space="preserve">
<style type="text/css">
	.st0{fill:#00947C;stroke:#F6F6F6;stroke-miterlimit:10;}
	.st1{fill:#FFFFFF;stroke:#F6F6F6;stroke-miterlimit:10;}
	.st2{fill:#32B295;stroke:#F6F6F6;stroke-miterlimit:10;}
	.st3{fill:#F6F6F6;stroke:#F6F6F6;stroke-miterlimit:10;}
	.st4{fill:#F6F6F6;stroke:#007E5C;stroke-width:3;stroke-miterlimit:10;}
	.st5{fill:none;stroke:#007E5C;stroke-width:3;stroke-miterlimit:10;}
	.st6{fill:#FFFFFF;stroke:#048072;stroke-miterlimit:10;}
</style>
<path class="st0" d="M75.2,81.7h-59c-4.8,0-8.7-3.9-8.7-8.7V27c0-4.8,3.9-8.7,8.7-8.7h59c4.8,0,8.7,3.9,8.7,8.7v46
	C83.9,77.8,80,81.7,75.2,81.7z"/>
<rect x="15.2" y="32" class="st1" width="61" height="41.7"/>
<rect x="18.6" y="37.4" class="st2" width="10.3" height="10.3"/>
<rect x="18.6" y="62.5" class="st2" width="10.3" height="10.3"/>
<rect x="18.6" y="50" class="st2" width="10.3" height="10.3"/>
<rect x="33.6" y="37.4" class="st2" width="10.3" height="10.3"/>
<rect x="47.6" y="37.4" class="st2" width="10.3" height="10.3"/>
<rect x="61.6" y="37.4" class="st2" width="10.3" height="10.3"/>
<rect x="33.6" y="50" class="st3" width="50.3" height="39"/>
<ellipse class="st4" cx="60.1" cy="70.1" rx="16.2" ry="14.9"/>
<line class="st5" x1="58" y1="58.2" x2="58" y2="72.5"/>
<line class="st5" x1="56.6" y1="72.1" x2="68.8" y2="72.1"/>
<path class="st6" d="M65.8,20.7h-1.2c-1.2,0-2.3-1-2.3-2.2V5.7c0-1.2,1-2.2,2.3-2.2h1.2c1.2,0,2.3,1,2.3,2.2v12.7
	C68,19.7,67,20.7,65.8,20.7z"/>
<path class="st6" d="M27.2,20.7H26c-1.2,0-2.2-1-2.2-2.2V5.7c0-1.2,1-2.2,2.2-2.2h1.2c1.2,0,2.2,1,2.2,2.2v12.7
	C29.4,19.7,28.4,20.7,27.2,20.7z"/>
</svg>
