<?xml version="1.0" encoding="utf-8"?>
<!-- Generator: Adobe Illustrator 19.2.1, SVG Export Plug-In . SVG Version: 6.00 Build 0)  -->
<svg version="1.1" id="Capa_1" xmlns="http://www.w3.org/2000/svg" xmlns:xlink="http://www.w3.org/1999/xlink" x="0px" y="0px"
	 viewBox="0 0 100 100" style="enable-background:new 0 0 100 100;" xml:space="preserve">
<style type="text/css">
	.st0{stroke:#000000;stroke-miterlimit:10;}
	.st1{fill:#FFFFFF;stroke:#000000;stroke-miterlimit:10;}
	.st2{fill:#FFFFFF;stroke:#F6F6F6;stroke-miterlimit:10;}
</style>
<path class="st0" d="M81.5,94.3H16.2c-4.1,0-7.5-3.4-7.5-7.5V13.5C8.7,9.4,12,6,16.2,6h65.3c4.1,0,7.5,3.4,7.5,7.5v73.3
	C89,91,85.6,94.3,81.5,94.3z"/>
<ellipse class="st1" cx="48.3" cy="33" rx="19.8" ry="20.6">
	<animate dur="3s" attributeName="r" values="8; 13; 8"
	repeatCount="indefinite" />
</ellipse>
<path class="st2" d="M61.2,46.5C57.1,57.3,53,68,48.9,78.8C44.7,68,40.5,57.3,36.3,46.5C44.6,46.5,52.9,46.5,61.2,46.5z"/>
<path class="st1" d="M44.7,96.3"/>
<path class="st1" d="M73.3,65"/>
<path class="st0" d="M53.1,39.4"/>
<path class="st2" d="M54.9,58"/>
<path class="st2" d="M59.4,49.9"/>
<circle class="st0" cx="48.8" cy="33" r="6.4">
	<animate dur="3s" attributeName="r" values="8; 13; 8"
	repeatCount="indefinite" />
</circle>
</svg>
