<?xml version="1.0" encoding="utf-8"?>
<!-- Generator: Adobe Illustrator 19.2.1, SVG Export Plug-In . SVG Version: 6.00 Build 0)  -->
<svg version="1.1" id="Capa_1" xmlns="http://www.w3.org/2000/svg" xmlns:xlink="http://www.w3.org/1999/xlink" x="0px" y="0px"
	 viewBox="0 0 100 100" style="enable-background:new 0 0 100 100;" xml:space="preserve">
<style type="text/css">
	.st0{fill:#FFFFFF;stroke:#F39200;stroke-width:2;stroke-miterlimit:10;}
	.st1{fill:#F39200;stroke:#F39200;stroke-miterlimit:10;}
	.st2{fill:#F39200;stroke:#F39200;stroke-width:2;stroke-miterlimit:10;}
	.st3{fill:#F39200;stroke:#000000;stroke-miterlimit:10;}
	.st4{fill:#F6F6F6;stroke:#F39200;stroke-width:2;stroke-miterlimit:10;}
	.st5{fill:#F6F6F6;stroke:#F6F6F6;stroke-miterlimit:10;}
	.st6{fill:#F39200;stroke:#BE1622;stroke-miterlimit:10;}
	.st7{fill:#F6F6F6;stroke:#000000;stroke-miterlimit:10;}
</style>
<rect x="12.8" y="45.9" class="st0" width="66.1" height="48.3"/>
<rect x="32" y="45.9" class="st1" width="15.5" height="15.4"/>
<path class="st2" d="M34.9,43.8c5.6,0,11.1,0,16.7,0.2c1.9-10.6,3.9-21.1,5.8-31.7c-2.9,0-5.8-0.2-9-0.2c-1.5,0-3.1-0.2-4.6-0.2
	C40.9,22.7,37.8,33.2,34.9,43.8z"/>
<path class="st3" d="M59.3,50.4"/>
<path class="st3" d="M63,17.8"/>
<path class="st4" d="M79.2,44.2c-9.7,0-19.6-0.2-29.3-0.2c2.9-10.6,6.1-21.1,9-31.7c10.4,0,20.8,0,31,0
	C86.5,22.9,82.8,33.6,79.2,44.2z"/>
<path class="st5" d="M87.2,33.2"/>
<path class="st4" d="M33.2,44c-6.8,0-13.3,0-20.1,0c4.1-10.6,8-21.3,12.1-31.7c5.6,0,11.4,0,17,0C39.2,22.7,36.3,33.4,33.2,44z"/>
<path class="st5" d="M-49,5.3"/>
<path class="st1" d="M95.7,22.1"/>
<path class="st1" d="M123.1,63.9"/>
<path class="st1" d="M89.6,94.2"/>
<path class="st4" d="M91.8,84.2c-3.6,3.1-7.3,5.9-10.9,9c-0.2-16-0.5-31.7-0.7-47.7c3.4-9.2,6.8-18.6,10.4-27.9
	C90.8,39.7,91.3,61.8,91.8,84.2z"/>
<path class="st1" d="M120.4,77.4"/>
<path class="st1" d="M74.6,26"/>
<path class="st5" d="M96.9,56.5"/>
<path class="st1" d="M82.8,15.5"/>
<path class="st6" d="M97.9,33"/>
<path class="st6" d="M110.7,67.2"/>
<path class="st6" d="M107.8,90.5"/>
<path class="st6" d="M76.8,91.7"/>
<path class="st7" d="M7.8,44.8"/>
<path class="st1" d="M90.1,14.9"/>
<path class="st7" d="M42.4,12.9"/>
<path class="st7" d="M0,11"/>
<path class="st7" d="M79.9,92.6"/>
<rect x="44.8" y="84.8" class="st1" width="25.2" height="2.7"/>
<rect x="48.9" y="74.1" class="st1" width="2.7" height="9.6"/>
<path class="st1" d="M45.1,74.1c1.9-2.3,4.1-4.7,6.1-7c1.5,2.3,2.7,4.5,4.1,6.8c-1.5,0-3.1,0-4.6,0.2C48.7,74.1,47,74.1,45.1,74.1z"
	/>
<path class="st3" d="M46,107.3"/>
<rect x="64.4" y="74.3" class="st1" width="2.7" height="9.6"/>
<path class="st1" d="M60.8,74.3c1.9-2.3,4.1-4.7,6.1-7c1.5,2.3,2.7,4.5,4.1,6.8c-1.5,0-3.1,0-4.6,0.2C64.2,74.1,62.5,74.3,60.8,74.3
	z"/>
</svg>
