<?xml version="1.0" encoding="utf-8"?>
<!-- Generator: Adobe Illustrator 19.2.1, SVG Export Plug-In . SVG Version: 6.00 Build 0)  -->
<svg version="1.1" id="Capa_1" xmlns="http://www.w3.org/2000/svg" xmlns:xlink="http://www.w3.org/1999/xlink" x="0px" y="0px"
	 viewBox="0 0 100 100" style="enable-background:new 0 0 100 100;" xml:space="preserve">
<style type="text/css">
	.st0{fill:#FFFFFF;stroke:#000000;stroke-miterlimit:10;}
	.st1{fill:none;stroke:#000000;stroke-miterlimit:10;}
	.st2{fill:#10070E;stroke:#000000;stroke-miterlimit:10;}
	.st3{stroke:#000000;stroke-miterlimit:10;}
	.st4{fill:#E30613;stroke:#000000;stroke-miterlimit:10;}
	.st5{fill:#CBBBA0;stroke:#CBBBA0;stroke-miterlimit:10;}
</style>
<path class="st0" d="M91.2,95.6H10.1c-2.8,0-5.1-2.3-5.1-5.1V9.4C5,8,5.6,6.8,6.5,5.9c1.2-1.2,2.9-1.4,3.6-1.5
	C13.5,4,42.3,4.1,81.4,4.5c2.2,3.6,4.4,7.2,6.7,10.8c1.1,1.3,2.2,2.6,3.3,3.9c1.9,1.5,3.9,3,5.8,4.5c-0.1,15.5-0.2,25.6-0.3,32.2
	c0,2.3-0.1,8.5-0.2,16.8c0,4.3,0,7.8,0,10.2c0,2.6-0.1,5.2-0.1,7.8c-0.1,0.5-0.4,2.2-1.9,3.5C93.3,95.4,91.7,95.6,91.2,95.6z"/>	
<path class="st1" d="M27.5,76.8">
	<animateTransform attributeName="transform"
			    type="translate"
			    from="-5"
			    to="13px"
			    begin="0s"
			    dur="2s"
			    repeatCount="indefinite"
			/>
</path>
<path class="st1" d="M33.6,58.8"/>
<path class="st1" d="M27.5,76.8"/>
<path class="st1" d="M43.9,68.3"/>
<path class="st1" d="M66.7,25"/>
<path class="st1" d="M76.8,35.6"/>
<path class="st2" d="M30.6,68.3"/>
<path class="st2" d="M35.1,73.1"/>
<path class="st3" d="M96.1,23H81.5V5.7c2.4,2.8,4.7,5.6,7.1,8.3C91.1,17,93.6,20,96.1,23z"/>
<g>
	<g>
		<path class="st4" d="M86.4,30c-3.1-2.3-6.7-1.5-7.2-1.3C66.9,40.9,54.7,53.1,42.4,65.4c-0.2,0.1-0.3,0.2-0.4,0.3
			c0,0.1-0.1,0.2-0.1,0.3c0.4,0,1.5-0.5,2.7-0.1c0.1,0,0.4,0.1,1.3,0.6c1.8,1,2.7,1.5,3.4,2.4c0.4,0.4,0.9,1.1,1.3,2.1
			c0.7,1.6,0.9,3,1.7,4.6c12.3-12.3,25-24.3,37.3-36.5C90.4,35.5,89.1,31.9,86.4,30z">
			<animateTransform attributeName="transform"
			    type="translate"
			    from="-0.5"
			    to="13px"
			    begin="0s"
			    dur="2s"
			    repeatCount="indefinite"
			/>
		</path>
		<path class="st0" d="M52,75.9c-4.5,1.1-8.9,2.3-13.4,3.4c1.1-4.4,2.3-8.7,3.4-13.1c0.9-0.1,1.9-0.2,3.2-0.1
			c1.4,0.1,2.6,0.4,3.4,0.7c0.8,0.8,2.1,2.4,2.9,4.9C52,73.3,52,74.9,52,75.9z">
			<animateTransform attributeName="transform"
			    type="translate"
			    from="-0.5"
			    to="13px"
			    begin="0s"
			    dur="2s"
			    repeatCount="indefinite"
			/>
		</path>
	</g>
	<path class="st3" d="M43.2,77.8L38.9,79l1.1-5.1c0.6-0.2,1.4-0.1,2.1,0.2C43.4,75.2,43.2,76.9,43.2,77.8z">
		<animateTransform attributeName="transform"
			    type="translate"
			    from="-0.5"
			    to="13px"
			    begin="0s"
			    dur="2s"
			    repeatCount="indefinite"
			/>
	</path>
</g>
<path class="st0" d="M95,7.3"/>
<path class="st0" d="M90.5,17.7"/>
<path class="st0" d="M127.2,57.2"/>
<path class="st0" d="M98.3,97.8"/>
<path class="st5" d="M72.2,17.7h-57c-2.6,0-4.6-2.1-4.6-4.6v0c0-2.6,2.1-4.6,4.6-4.6h57c2.6,0,4.6,2.1,4.6,4.6v0 C76.8,15.7,74.7,17.7,72.2,17.7z"/>
<path class="st0" d="M74,73.8"/>
<rect x="12.6" y="27.3" class="st5" width="62.8" height="3.3"/>
<rect x="12.6" y="34.7" class="st5" width="42.7" height="3.3"/>
<rect x="12.4" y="42.1" class="st5" width="47.1" height="3.3"/>
<rect x="12.4" y="49.5" class="st5" width="31.6" height="3.3"/>
<rect x="12.4" y="56.7" class="st5" width="32.8" height="3.3"/>
<rect x="12.4" y="63.9" class="st5" width="27.2" height="3.3"/>
<rect x="12.4" y="70.6" class="st5" width="25" height="3.3"/>
<rect x="12.4" y="78.3" class="st5" width="25" height="3.3">
	<animate attributeName="width" 
		   from="-5" 
		   to="13px"
		   begin="0s"
		   dur="2s"
           additive="sum" 
           repeatCount="indefinite"/>
</rect>                       
</svg>
