<?xml version="1.0" encoding="utf-8"?>
<!-- Generator: Adobe Illustrator 19.2.1, SVG Export Plug-In . SVG Version: 6.00 Build 0)  -->
<svg version="1.1" id="Capa_1" xmlns="http://www.w3.org/2000/svg" xmlns:xlink="http://www.w3.org/1999/xlink" x="0px" y="0px"
	 viewBox="0 0 100 100" style="enable-background:new 0 0 100 100;" xml:space="preserve">
<style type="text/css">
	.st0{fill:#FFFFFF;stroke:#575756;stroke-width:2;stroke-miterlimit:10;}
	.st1{fill:#575756;stroke:#575756;stroke-width:2;stroke-miterlimit:10;}
	.st2{fill:none;stroke:#575756;stroke-width:2;stroke-miterlimit:10;}
	.st3{fill:#FFFFFF;stroke:#FFFFFF;stroke-miterlimit:10;}
	.st4{font-family:'MyriadPro-Regular';}
	.st5{font-size:23.052px;}
</style>
<path class="st0" d="M79,83H23c-2.2,0-4-1.8-4-4V16.7c0-2.2,1.8-4,4-4H79c2.2,0,4,1.8,4,4V79C83,81.2,81.2,83,79,83z"/>
<rect x="22.7" y="19" class="st1" width="42.9" height="2.7"/>
<rect x="22.7" y="30" class="st1" width="42.9" height="2.7"/>
<rect x="22.7" y="37.9" class="st0" width="56.7" height="41.6"/>
<line class="st2" x1="22.7" y1="44.2" x2="79.4" y2="44.2"/>
<line class="st2" x1="47.8" y1="37.9" x2="47.8" y2="79.6"/>
<line class="st2" x1="63.8" y1="37.1" x2="63.8" y2="78.7"/>
<circle class="st1" cx="81.3" cy="19.9" r="12.8"/>
<text transform="matrix(1.3457 0 0 1 73.8125 28.248)" class="st3 st4 st5">F</text>
</svg>
