<?xml version="1.0" encoding="utf-8"?>
<!-- Generator: Adobe Illustrator 19.2.1, SVG Export Plug-In . SVG Version: 6.00 Build 0)  -->
<svg version="1.1" id="Capa_1" xmlns="http://www.w3.org/2000/svg" xmlns:xlink="http://www.w3.org/1999/xlink" x="0px" y="0px"
	 viewBox="0 0 100 100" style="enable-background:new 0 0 100 100;" xml:space="preserve">
<style type="text/css">
	.st0{fill:#009FE3;stroke:#009FE3;stroke-miterlimit:10;}
	.st1{fill:#FFFFFF;stroke:#FFFFFF;stroke-miterlimit:10;}
	.st2{fill:#FFFFFF;stroke:#9D9D9C;stroke-width:4;stroke-miterlimit:10;}
	.st3{fill:#9D9D9C;stroke:#9D9D9C;stroke-miterlimit:10;}
	.st4{fill:#F6F6F6;stroke:#F6F6F6;stroke-miterlimit:10;}
	.st5{stroke:#000000;stroke-miterlimit:10;}
</style>
<ellipse class="st0" cx="49.4" cy="48.4" rx="33.1" ry="31.8"/>
<path class="st1" d="M74.5,71c-15.6,3.4-31.2,6.7-46.9,10.1c-1.4-23.3-2.8-46.6-4.2-69.9c16,0,31.9,0,47.9,0
	C72.3,31.1,73.4,51.1,74.5,71z"/>
<path class="st1" d="M11.2,82.3"/>
<path class="st2" d="M67.2,66.9c-10.9,2-21.8,3.9-32.7,5.9c-1-19.4-2-38.9-2.9-58.3c11.1,0,22.2,0,33.3,0
	C65.7,31.9,66.4,49.4,67.2,66.9z"/>
<path class="st0" d="M60,29.9c-7.5,0.2-15.1,0.4-22.6,0.6c0-0.7-0.1-1.5-0.1-2.2c7.6-0.2,15.1-0.5,22.7-0.7
	C60.1,28.4,60.1,29.2,60,29.9z"/>
<path class="st0" d="M60.3,36c-7.5,0.2-15.1,0.4-22.6,0.6c0-0.7-0.1-1.5-0.1-2.2c7.6-0.2,15.1-0.5,22.7-0.7
	C60.4,34.5,60.3,35.2,60.3,36z"/>
<path class="st0" d="M60.8,42.1c-7.5,0.2-15.1,0.4-22.6,0.6c0-0.7-0.1-1.5-0.1-2.2c7.6-0.2,15.1-0.5,22.7-0.7
	C60.8,40.5,60.8,41.3,60.8,42.1z"/>
<path class="st0" d="M61.4,47.5c-7.9,0.2-15.8,0.4-23.6,0.6c0-0.7-0.1-1.5-0.1-2.2c7.9-0.2,15.9-0.5,23.8-0.7
	C61.4,45.9,61.4,46.7,61.4,47.5z"/>
<path class="st3" d="M65.3,22.1c-3.4,0.3-6.8,0.5-10.2,0.8c0.6-2.2,1.2-4.5,1.9-6.8c0.4-1.3,0.7-2.7,1.1-4c2.2,0.1,4.4,0.2,6.6,0.3
	C64.9,15.6,65.1,18.9,65.3,22.1z"/>
<path class="st3" d="M22.5,26.8"/>
<path class="st1" d="M68.7,18.8c-4-2.4-8-4.8-11.9-7.2c0.9-1.6,1.8-3.3,2.7-4.9l12.2,5.5L68.7,18.8z"/>
<path class="st4" d="M56.5,22.1"/>
<path class="st1" d="M60.4,13.3"/>
<path class="st1" d="M84.1,16.6"/>
<path class="st5" d="M54.8,55.1c-0.1,0.2-0.2,0.4-0.2,0.5c-0.1,0.3-0.1,0.5-0.1,0.7c-0.4-0.9-0.8-1.7-1.2-2.6
	c0.9,0.3,1.7,0.5,2.6,0.8C55.7,54.5,55.1,54.6,54.8,55.1z"/>
<path class="st1" d="M81.1,79.5"/>
<path class="st5" d="M59.7,58.3"/>
<path d="M57.4,57.9l-2.7-2c-0.2-0.2-0.3-0.5-0.1-0.8l0,0c0.2-0.2,0.5-0.3,0.8-0.1l2.7,2c0.2,0.2,0.3,0.5,0.1,0.8l0,0
	C57.9,58,57.6,58.1,57.4,57.9z"/>
</svg>
